<svg width="868" height="868" viewBox="0 0 868 868" fill="none" xmlns="http://www.w3.org/2000/svg">
<g clip-path="url(#clip0_901_340)">
<path d="M868 434C868.077 492.75 856.185 550.9 833.049 604.903L831.611 608.216C792.474 697.249 724.613 770.588 638.879 816.503C553.145 862.418 454.491 878.258 358.692 861.49C356.085 861.028 353.483 860.548 350.885 860.052C324.04 854.848 297.753 847.096 272.38 836.901C268.258 835.244 264.166 833.528 260.105 831.752C257.331 830.545 254.558 829.299 251.81 828.015C176.642 793.177 113.001 737.577 68.3862 667.767C23.7718 597.957 0.0441275 516.848 0 434C0 194.311 194.311 0 434 0C673.689 0 868 194.311 868 434Z" fill="#03A045"/>
<path opacity="0.2" d="M358.693 861.49C356.086 861.028 353.484 860.549 350.886 860.052C349.191 810.861 343.374 709.899 323.536 604.159C312.686 546.288 297.625 486.966 276.734 433.936C269.577 415.587 261.402 397.651 252.247 380.212C231.138 340.343 205.535 306.779 174.487 284.039L179.058 277.799C204.88 296.725 228.086 323.296 248.678 357.511C254.854 367.757 260.786 378.689 266.474 390.305C272.574 402.734 278.39 415.93 283.924 429.891C287.455 438.777 290.867 447.97 294.158 457.472C308.488 498.728 320.669 545.8 330.701 598.689C332.923 610.374 335.037 622.345 337.044 634.603C352.594 729.583 357.28 817.397 358.693 861.49Z" fill="black"/>
<path opacity="0.2" d="M260.105 831.752C257.331 830.545 254.558 829.3 251.81 828.016C249.126 798.868 244.196 762.71 235.182 728.388C231.234 712.973 226.166 697.867 220.018 683.191C209.733 659.115 196.417 638.648 179.198 626.026L183.77 619.798C201.797 632.998 215.703 653.863 226.451 678.273C238.559 705.777 246.635 737.787 252.015 768.373C256.009 791.087 258.525 813.031 260.105 831.752Z" fill="black"/>
<path opacity="0.2" d="M131.308 283.859C152.645 283.859 169.942 266.562 169.942 245.225C169.942 223.888 152.645 206.591 131.308 206.591C109.97 206.591 92.6731 223.888 92.6731 245.225C92.6731 266.562 109.97 283.859 131.308 283.859Z" fill="black"/>
<path opacity="0.2" d="M143.748 616.433C165.085 616.433 182.383 599.136 182.383 577.799C182.383 556.462 165.085 539.164 143.748 539.164C122.411 539.164 105.114 556.462 105.114 577.799C105.114 599.136 122.411 616.433 143.748 616.433Z" fill="black"/>
<path opacity="0.2" d="M284.688 310.119C276.495 356.341 294.581 398.193 294.581 398.193C294.581 398.193 325.949 365.106 334.142 318.885C342.335 272.663 324.249 230.811 324.249 230.811C324.249 230.811 292.881 263.898 284.688 310.119Z" fill="black"/>
<path opacity="0.2" d="M156.288 419.839C200.375 435.96 244.676 425.614 244.676 425.614C244.676 425.614 217.499 389.132 173.412 373.011C129.325 356.89 85.0237 367.235 85.0237 367.235C85.0237 367.235 112.202 403.718 156.288 419.839Z" fill="black"/>
<path opacity="0.2" d="M148.812 714.345C179.713 725.644 210.808 718.273 210.808 718.273C210.808 718.273 191.803 692.582 160.901 681.282C130 669.983 98.9046 677.354 98.9046 677.354C98.9046 677.354 117.91 703.045 148.812 714.345Z" fill="black"/>
<path d="M433.109 530.108C526.554 530.108 602.305 454.356 602.305 360.912C602.305 267.467 526.554 191.716 433.109 191.716C339.665 191.716 263.913 267.467 263.913 360.912C263.913 454.356 339.665 530.108 433.109 530.108Z" fill="#FDB797"/>
<path d="M367.016 490.452C367.016 490.452 388.166 590.912 388.166 601.487C388.166 612.062 488.626 659.648 488.626 659.648L578.511 643.786L610.235 548.613C610.235 548.613 557.362 469.303 557.362 437.579L367.016 490.452Z" fill="#FDB797"/>
<path d="M833.049 604.903L831.611 608.216C792.475 697.249 724.614 770.587 638.88 816.503C553.146 862.418 454.491 878.258 358.693 861.49C356.086 861.027 353.484 860.548 350.886 860.052C324.041 854.848 297.753 847.096 272.38 836.901C268.259 835.244 264.167 833.528 260.105 831.752C257.332 830.545 254.558 829.299 251.81 828.015C226.904 816.477 203.15 802.598 180.868 786.567L160.812 728.388L172.085 719.785L195.275 702.078L220.018 683.19L226.451 678.273L323.536 604.159L330.701 598.689L381.163 560.168L381.176 560.155C381.176 560.155 435.747 649.074 515.061 622.636C594.375 596.198 592.642 520.389 592.642 520.389L833.049 604.903Z" fill="#006432"/>
<path d="M286.382 224.596C286.382 224.596 340.101 108.205 443.063 135.064C546.025 161.924 604.22 202.213 608.697 242.503C613.173 282.792 606.459 343.226 606.459 343.226C606.459 343.226 595.267 260.409 523.642 278.315C452.016 296.222 340.101 282.792 340.101 282.792L322.195 443.949C322.195 443.949 302.05 414.851 279.667 432.758C257.284 450.664 214.757 260.409 286.382 224.596Z" fill="#2F2E41"/>
<path d="M272.379 836.901C268.258 835.245 264.166 833.528 260.104 831.752C257.331 830.545 254.557 829.3 251.809 828.016C210.617 808.914 172.668 783.482 139.342 752.643C151.142 736.567 160.811 728.388 160.811 728.388H240.125L252.015 768.373L272.379 836.901Z" fill="#006432"/>
<path d="M763.571 596.198L831.612 608.216C813.403 649.697 788.812 688.07 758.731 721.942L763.571 596.198Z" fill="#006432"/>
</g>
<defs>
<clipPath id="clip0_901_340">
<rect width="868" height="868" fill="white"/>
</clipPath>
</defs>
</svg>
